# xmcd CD database file
#
# Track frame offsets:
#	150
#	21430
#	41705
#	65072
#
# Disc length: 1202 seconds
#
# Revision: 2
# Processed by: cddbd v1.5.2PL0 Copyright (c) Steve Scherf et al.
# Submitted via: jetAudio 5
#
DISCID=3604b004
DTITLE=TLC - Red Light Special
DYEAR=1900
DGENRE=
TTITLE0=Red Light Special  (Radio Edit)
TTITLE1=Red Light Special  (L.A.'s Flava Mix)
TTITLE2=Red Light Special  (Gerald Hall's Remix)
TTITLE3=My Secret Enemy
EXTD=
EXTT0=
EXTT1=
EXTT2=
EXTT3=
PLAYORDER=
